<?xml version="1.0" encoding="UTF-8"?>
<svg viewBox="0 0 284 103" version="1.1" xmlns="http://www.w3.org/2000/svg" xmlns:xlink="http://www.w3.org/1999/xlink">
    <title>werner glinka</title>
    <g id="Page-1" stroke="none" stroke-width="1" fill="none" fill-rule="evenodd">
        <path d="M38.8000014,77.6999995 L43.3000014,71.5499985 L8.00000262,49.6999949 L43.3000014,28.0499913 L39.2500077,21.5999903 L0.800001442,45.3499942 L0.800001442,53.9499956 L38.8000014,77.6999995 Z M74.9500038,81 L82.350005,42.3499914 L89.1500061,81 L101.050008,81 L110.25,28.3499914 L102.050008,28.3499914 L95.3500071,75.7999991 L87.4000058,35.0499925 L77.4500042,35.0499925 L69.0500028,75.7999991 L62.3500017,28.3499914 L53.7500003,28.3499914 L63.3500019,81 L74.9500038,81 Z M140.800005,102.200003 C156.800007,102.200003 165.950009,96.5000025 165.950009,86.1500008 C165.950009,78.0499995 157.950008,71.8499985 147.350006,71.8499985 L137.850004,71.8499985 C132.400003,71.8499985 130.800003,69.9499982 130.800003,67.4499978 C130.800003,65.4499975 131.950003,63.4499971 133.550001,62.3499969 C135.750004,63.0499971 137.850004,63.3499971 141.400005,63.3499971 C153.850007,63.3499971 161.200008,55.8499959 161.200008,45.4499942 C161.200008,39.4499932 158.150008,34.9999925 152.050001,32.199992 C157.950008,32.199992 162.950008,32.049992 167.450009,30.6499917 L164.850009,22.7499905 C158.650008,25.4499909 154.150007,27.1499912 140.850005,27.1999912 C128.450003,27.1999912 119.850001,34.8499924 119.850001,45.4999942 C119.850001,52.2499905 122.650002,56.849996 128.700003,60.0499966 C124.900002,62.549997 122.900002,65.8499975 122.900002,69.2499905 C122.900002,74.4499989 127.050001,79.1499997 136.150004,79.1499997 L145.550001,79.1499997 C152.350007,79.1499997 157.450007,81.7000001 157.450007,86.7000009 C157.450007,92.4500019 152.350007,95.3500024 140.750005,95.3500024 C128.950003,95.3500024 126.150002,92.5000019 126.150002,86.3500009 L118.550001,86.3500009 C118.550001,97.0500026 124.000002,102.200003 140.800005,102.200003 Z M141.050005,57.7499962 C132.450003,57.7499962 128.450003,52.6499954 128.450003,45.4999942 C128.450003,38.449993 132.350003,33.3499922 140.850005,33.3499922 C148.550006,33.3499922 152.500007,37.4999929 152.500007,45.4499942 C152.500007,53.1999954 148.450003,57.7499962 141.050005,57.7499962 Z M194.049994,91.3000017 L228.499999,20.3499901 L276.100007,49.6999949 L240.800001,71.4999984 L245.350002,77.6999995 L283.300008,53.9499956 L283.300008,45.3499942 L231.8,13.4999889 L236.749993,3.34998727 L230.05,0.0499867313 L187.249993,88.3000012 L194.049994,91.3000017 Z" id="&lt;wg&gt;" fill="#090909" fill-rule="nonzero"></path>
    </g>
</svg>